HIERARCHY
ROOT Hip
{
	OFFSET 0.044400 0.338226 -0.086373
	CHANNELS 6 Xposition Yposition Zposition Xrotation Yrotation Zrotation
	JOINT LowerSpine
	{
		OFFSET 0.000000 0.154442 0.259456
		CHANNELS 6 Xposition Yposition Zposition Xrotation Yrotation Zrotation
		JOINT MiddleSpine
		{
			OFFSET -0.000000 -0.011133 0.236774
			CHANNELS 3 Xrotation Yrotation Zrotation
			JOINT Chest
			{
				OFFSET -0.000000 0.058694 0.292978
				CHANNELS 3 Xrotation Yrotation Zrotation
				JOINT Neck
				{
					OFFSET -0.000000 0.012356 0.660221
					CHANNELS 6 Xposition Yposition Zposition Xrotation Yrotation Zrotation
					JOINT Head
					{
						OFFSET -0.000003 -0.101410 0.372834
						CHANNELS 3 Xrotation Yrotation Zrotation
						End Site
						{
							OFFSET 0.000000 -0.001598 0.053543
						}
					}
				}
				JOINT LClavicle
				{
					OFFSET 0.059990 -0.196462 0.637146
					CHANNELS 6 Xposition Yposition Zposition Xrotation Yrotation Zrotation
					JOINT LShoulder
					{
						OFFSET 0.350465 0.147876 0.091389
						CHANNELS 3 Xrotation Yrotation Zrotation
						JOINT LForearm
						{
							OFFSET 0.827173 0.007168 -0.002932
							CHANNELS 3 Xrotation Yrotation Zrotation
							JOINT LHand
							{
								OFFSET 0.690037 0.004133 0.002002
								CHANNELS 3 Xrotation Yrotation Zrotation
								JOINT LFinger1
								{
									OFFSET 0.267439 -0.074281 0.023388
									CHANNELS 6 Xposition Yposition Zposition Xrotation Yrotation Zrotation
									JOINT LFinger11
									{
										OFFSET 0.100036 -0.017626 -0.024394
										CHANNELS 3 Xrotation Yrotation Zrotation
										JOINT LFinger12
										{
											OFFSET 0.068292 -0.012037 -0.016657
											CHANNELS 3 Xrotation Yrotation Zrotation
											End Site
											{
												OFFSET 0.050720 -0.008226 -0.015141
											}
										}
									}
								}
								JOINT LFinger2
								{
									OFFSET 0.271429 -0.006468 0.027009
									CHANNELS 6 Xposition Yposition Zposition Xrotation Yrotation Zrotation
									JOINT LFinger21
									{
										OFFSET 0.123687 0.000731 0.000344
										CHANNELS 3 Xrotation Yrotation Zrotation
										JOINT LFinger22
										{
											OFFSET 0.068561 0.000417 0.000210
											CHANNELS 3 Xrotation Yrotation Zrotation
											End Site
											{
												OFFSET 0.053434 -0.000070 -0.003773
											}
										}
									}
								}
								JOINT LFinger3
								{
									OFFSET 0.257236 0.060858 0.018026
									CHANNELS 6 Xposition Yposition Zposition Xrotation Yrotation Zrotation
									JOINT LFinger31
									{
										OFFSET 0.112235 0.007028 -0.005681
										CHANNELS 3 Xrotation Yrotation Zrotation
										JOINT LFinger32
										{
											OFFSET 0.063958 0.004018 -0.003217
											CHANNELS 3 Xrotation Yrotation Zrotation
											End Site
											{
												OFFSET 0.053108 0.002511 -0.006529
											}
										}
									}
								}
								JOINT LFinger4
								{
									OFFSET 0.238705 0.105101 -0.018139
									CHANNELS 6 Xposition Yposition Zposition Xrotation Yrotation Zrotation
									JOINT LFinger41
									{
										OFFSET 0.069034 0.019057 -0.014398
										CHANNELS 3 Xrotation Yrotation Zrotation
										JOINT LFinger42
										{
											OFFSET 0.050624 0.013983 -0.010542
											CHANNELS 3 Xrotation Yrotation Zrotation
											End Site
											{
												OFFSET 0.050433 0.011572 -0.013857
											}
										}
									}
								}
								JOINT LFinger0
								{
									OFFSET 0.055325 -0.041941 -0.041874
									CHANNELS 6 Xposition Yposition Zposition Xrotation Yrotation Zrotation
									JOINT LFinger01
									{
										OFFSET 0.103004 -0.077658 -0.033827
										CHANNELS 3 Xrotation Yrotation Zrotation
										JOINT LFinger02
										{
											OFFSET 0.067827 -0.048866 -0.024270
											CHANNELS 3 Xrotation Yrotation Zrotation
											End Site
											{
												OFFSET 0.042516 -0.029114 -0.014636
											}
										}
									}
								}
							}
						}
					}
				}
				JOINT RClavicle
				{
					OFFSET -0.059990 -0.196459 0.637146
					CHANNELS 6 Xposition Yposition Zposition Xrotation Yrotation Zrotation
					JOINT RShoulder
					{
						OFFSET -0.350526 0.147902 0.091406
						CHANNELS 3 Xrotation Yrotation Zrotation
						JOINT RForearm
						{
							OFFSET -0.827173 0.007168 -0.002932
							CHANNELS 3 Xrotation Yrotation Zrotation
							JOINT RHand
							{
								OFFSET -0.690037 0.004133 0.002002
								CHANNELS 3 Xrotation Yrotation Zrotation
								JOINT RFinger1
								{
									OFFSET -0.267439 -0.074281 0.023391
									CHANNELS 6 Xposition Yposition Zposition Xrotation Yrotation Zrotation
									JOINT RFinger11
									{
										OFFSET -0.100036 -0.017626 -0.024394
										CHANNELS 3 Xrotation Yrotation Zrotation
										JOINT RFinger12
										{
											OFFSET -0.068292 -0.012037 -0.016660
											CHANNELS 3 Xrotation Yrotation Zrotation
											End Site
											{
												OFFSET -0.050720 -0.008226 -0.015141
											}
										}
									}
								}
								JOINT RFinger2
								{
									OFFSET -0.271429 -0.006468 0.027012
									CHANNELS 6 Xposition Yposition Zposition Xrotation Yrotation Zrotation
									JOINT RFinger21
									{
										OFFSET -0.123690 0.000731 0.000344
										CHANNELS 3 Xrotation Yrotation Zrotation
										JOINT RFinger22
										{
											OFFSET -0.068561 0.000420 0.000210
											CHANNELS 3 Xrotation Yrotation Zrotation
											End Site
											{
												OFFSET -0.053434 -0.000070 -0.003773
											}
										}
									}
								}
								JOINT RFinger3
								{
									OFFSET -0.257236 0.060858 0.018026
									CHANNELS 6 Xposition Yposition Zposition Xrotation Yrotation Zrotation
									JOINT RFinger31
									{
										OFFSET -0.112235 0.007028 -0.005681
										CHANNELS 3 Xrotation Yrotation Zrotation
										JOINT RFinger32
										{
											OFFSET -0.063958 0.004018 -0.003217
											CHANNELS 3 Xrotation Yrotation Zrotation
											End Site
											{
												OFFSET -0.053108 0.002511 -0.006529
											}
										}
									}
								}
								JOINT RFinger4
								{
									OFFSET -0.238706 0.105101 -0.018138
									CHANNELS 6 Xposition Yposition Zposition Xrotation Yrotation Zrotation
									JOINT RFinger41
									{
										OFFSET -0.069034 0.019057 -0.014395
										CHANNELS 3 Xrotation Yrotation Zrotation
										JOINT RFinger42
										{
											OFFSET -0.050624 0.013983 -0.010540
											CHANNELS 3 Xrotation Yrotation Zrotation
											End Site
											{
												OFFSET -0.050433 0.011572 -0.013857
											}
										}
									}
								}
								JOINT RFinger0
								{
									OFFSET -0.055325 -0.041938 -0.041871
									CHANNELS 6 Xposition Yposition Zposition Xrotation Yrotation Zrotation
									JOINT RFinger01
									{
										OFFSET -0.103004 -0.077661 -0.033832
										CHANNELS 3 Xrotation Yrotation Zrotation
										JOINT RFinger02
										{
											OFFSET -0.067825 -0.048866 -0.024267
											CHANNELS 3 Xrotation Yrotation Zrotation
											End Site
											{
												OFFSET -0.042516 -0.029114 -0.014636
											}
										}
									}
								}
							}
						}
					}
				}
			}
		}
	}
	JOINT RThigh
	{
		OFFSET -0.306771 0.025164 0.117281
		CHANNELS 6 Xposition Yposition Zposition Xrotation Yrotation Zrotation
		JOINT RShin
		{
			OFFSET -0.022210 0.000000 -1.207231
			CHANNELS 3 Xrotation Yrotation Zrotation
			JOINT RFoot
			{
				OFFSET -0.000000 0.000000 -1.185430
				CHANNELS 3 Xrotation Yrotation Zrotation
				JOINT RToe
				{
					OFFSET 0.000000 -0.272451 -0.130290
					CHANNELS 3 Xrotation Yrotation Zrotation
					End Site
					{
						OFFSET 0.000000 -0.053567 0.000000
					}
				}
			}
		}
	}
	JOINT LThigh
	{
		OFFSET 0.306765 0.025166 0.117289
		CHANNELS 6 Xposition Yposition Zposition Xrotation Yrotation Zrotation
		JOINT LShin
		{
			OFFSET 0.022212 -0.000000 -1.207239
			CHANNELS 3 Xrotation Yrotation Zrotation
			JOINT LFoot
			{
				OFFSET 0.000000 -0.000000 -1.185431
				CHANNELS 3 Xrotation Yrotation Zrotation
				JOINT LToe
				{
					OFFSET -0.000000 -0.272454 -0.130289
					CHANNELS 3 Xrotation Yrotation Zrotation
					End Site
					{
						OFFSET 0.000000 -0.053567 0.000000
					}
				}
			}
		}
	}
}
MOTION
Frames: 5
Frame Time: 0.041667
-0.027753 1.914990 2.338258 -5.208460 -5.249929 -131.102353 0.000000 0.154442 0.259456 0.245748 2.040107 0.738127 -0.311535 2.265735 0.871814 -1.509563 2.556251 1.121256 -0.000000 0.012357 0.660221 -2.509040 -0.358131 -0.106256 -0.136825 -0.663692 -0.021367 0.059990 -0.196462 0.637146 -0.716109 15.545567 -0.046167 32.955400 59.509697 -16.949384 -0.000010 0.000015 -34.287792 0.000007 -0.000000 0.000001 0.267439 -0.074282 0.023388 0.000002 -0.000011 -0.000014 -0.000008 0.000007 0.000001 0.000012 0.000008 -0.000003 0.271428 -0.006468 0.027009 0.000009 -0.000003 -0.000001 -0.000007 -0.000001 -0.000005 0.000002 0.000002 0.000005 0.257236 0.060858 0.018026 0.000006 0.000000 -0.000005 0.000006 0.000000 -0.000000 -0.000004 -0.000003 0.000000 0.238704 0.105100 -0.018139 0.000007 0.000008 -0.000006 -0.000004 0.000006 0.000003 -0.000000 0.000000 -0.000003 0.055325 -0.041941 -0.041875 -0.000001 0.000003 -0.000017 -0.000009 -0.000005 -0.000006 0.000002 0.000014 -0.000020 -0.059990 -0.196459 0.637146 0.351614 -15.398947 0.535428 57.579663 -52.656035 52.148737 -0.000001 0.000014 16.082188 0.000024 0.000014 0.000011 -0.267439 -0.074281 0.023391 0.000027 0.000015 0.000006 0.000001 -0.000004 -0.000000 -0.000057 -0.000014 -0.000033 -0.271430 -0.006468 0.027012 0.000017 0.000014 0.000002 0.000012 0.000021 -0.000004 -0.000020 -0.000035 0.000002 -0.257236 0.060858 0.018026 0.000018 0.000011 -0.000002 -0.000025 0.000017 0.000005 0.000012 0.000014 0.000000 -0.238706 0.105101 -0.018138 0.000028 0.000016 -0.000002 0.000033 0.000016 0.000010 -0.000030 -0.000005 0.000009 -0.055325 -0.041938 -0.041871 0.000027 0.000033 0.000013 -0.000015 -0.000013 0.000002 0.000052 0.000034 0.000031 -0.306849 0.036633 0.130714 -17.906412 -11.066738 8.073265 32.890913 -0.000043 -0.000009 -1.317067 -0.031379 0.098668 -6.982008 0.000027 -0.000005 0.249057 0.031547 0.134736 -10.201781 -12.018368 31.021340 40.879543 -0.000007 0.000007 -0.533208 -1.631649 3.353824 -0.779672 0.000025 -0.000001 
-0.038279 1.977088 2.327377 -5.524880 -4.573084 -136.983542 0.000000 0.154442 0.259456 0.271805 2.268742 0.786572 -0.282551 2.506452 0.913382 -1.445517 2.770878 1.128987 -0.000000 0.012357 0.660221 -2.762362 -0.412408 -0.123161 -0.160172 -0.735272 -0.023973 0.059990 -0.196462 0.637146 -0.967916 15.878875 -0.059504 42.181281 54.695612 -28.516842 -0.000000 0.000010 -26.643624 0.000009 -0.000000 0.000001 0.267439 -0.074282 0.023388 0.000005 -0.000008 -0.000013 -0.000004 0.000010 0.000002 0.000008 0.000009 -0.000001 0.271429 -0.006468 0.027009 0.000001 -0.000005 0.000000 0.000002 0.000000 -0.000007 0.000003 0.000004 0.000002 0.257236 0.060857 0.018026 0.000006 0.000000 -0.000004 0.000003 -0.000000 -0.000001 -0.000002 -0.000003 -0.000000 0.238705 0.105100 -0.018138 0.000003 0.000007 -0.000007 -0.000003 0.000009 0.000003 0.000002 0.000004 -0.000003 0.055324 -0.041942 -0.041875 -0.000003 -0.000002 -0.000017 -0.000004 0.000003 -0.000004 -0.000002 0.000014 -0.000011 -0.059990 -0.196459 0.637146 0.409374 -15.369179 0.623379 57.295448 -50.492621 52.361815 -0.000003 0.000015 19.481795 0.000025 0.000015 0.000011 -0.267440 -0.074281 0.023391 0.000026 0.000014 0.000006 -0.000000 -0.000003 -0.000000 -0.000058 -0.000013 -0.000031 -0.271430 -0.006468 0.027012 0.000017 0.000015 0.000001 0.000012 0.000020 -0.000004 -0.000019 -0.000035 0.000001 -0.257236 0.060858 0.018026 0.000017 0.000012 -0.000001 -0.000023 0.000017 0.000005 0.000014 0.000013 -0.000001 -0.238707 0.105101 -0.018138 0.000028 0.000016 -0.000002 0.000033 0.000016 0.000010 -0.000031 -0.000003 0.000012 -0.055326 -0.041938 -0.041871 0.000028 0.000036 0.000014 -0.000018 -0.000011 0.000003 0.000054 0.000038 0.000032 -0.306849 0.036634 0.130714 -16.302408 -12.069496 10.231796 33.650361 -0.000042 -0.000007 -2.802215 0.026169 -0.024749 -6.083576 0.000022 -0.000008 0.249057 0.031547 0.134737 -12.854413 -12.209721 33.892789 42.719681 -0.000007 0.000007 -2.060107 -1.451555 2.895020 -3.343354 0.000023 -0.000001 
-0.037329 2.048384 2.315252 -5.412753 -4.189666 -142.295120 0.000000 0.154442 0.259456 0.297897 2.504219 0.830583 -0.252030 2.758776 0.953346 -1.369886 2.998411 1.137992 0.000000 0.012357 0.660221 -3.020952 -0.471032 -0.141843 -0.185514 -0.808993 -0.026735 0.059990 -0.196462 0.637146 -1.291972 16.308728 -0.074315 45.064922 49.765428 -34.269668 -0.000001 0.000009 -19.340902 0.000009 -0.000001 0.000000 0.267439 -0.074282 0.023388 0.000009 -0.000008 -0.000009 -0.000002 0.000013 0.000003 0.000006 0.000008 -0.000003 0.271429 -0.006468 0.027009 0.000004 -0.000004 -0.000000 -0.000001 -0.000000 -0.000007 -0.000000 0.000003 0.000001 0.257236 0.060858 0.018027 0.000009 0.000001 -0.000003 0.000004 0.000000 -0.000001 -0.000001 -0.000003 0.000001 0.238705 0.105100 -0.018138 0.000007 0.000009 -0.000004 -0.000002 0.000006 0.000001 0.000003 0.000001 -0.000003 0.055325 -0.041942 -0.041875 -0.000001 0.000001 -0.000009 -0.000010 0.000002 -0.000002 0.000005 0.000009 -0.000018 -0.059990 -0.196459 0.637146 0.472748 -15.336905 0.719903 60.197032 -48.639485 56.084930 -0.000005 0.000015 17.999640 0.000023 0.000017 0.000011 -0.267439 -0.074281 0.023391 0.000028 0.000014 0.000007 0.000002 -0.000005 0.000001 -0.000053 -0.000013 -0.000031 -0.271429 -0.006468 0.027012 0.000018 0.000017 0.000002 0.000014 0.000022 -0.000004 -0.000017 -0.000036 0.000001 -0.257235 0.060858 0.018026 0.000018 0.000012 -0.000001 -0.000023 0.000018 0.000006 0.000012 0.000013 0.000000 -0.238706 0.105101 -0.018138 0.000027 0.000017 -0.000003 0.000034 0.000017 0.000010 -0.000028 -0.000008 0.000012 -0.055325 -0.041938 -0.041871 0.000028 0.000035 0.000006 -0.000018 -0.000017 0.000001 0.000055 0.000043 0.000038 -0.306849 0.036633 0.130714 -14.775815 -14.586074 14.332334 34.806193 -0.000046 -0.000010 -2.441904 0.858234 -1.734750 -6.580846 0.000029 0.000001 0.249057 0.031547 0.134736 -15.879631 -12.540646 32.432081 42.231978 -0.000009 0.000006 -3.404570 -1.161084 2.255994 -6.349993 0.000026 -0.000005 
-0.036156 2.111043 2.307208 -5.626913 -3.873478 -146.956356 0.000000 0.154442 0.259456 0.323518 2.743606 0.869061 -0.221174 3.020384 0.990729 -1.284331 3.237039 1.147201 0.000000 0.012357 0.660220 -3.282353 -0.533849 -0.162033 -0.212648 -0.884031 -0.029635 0.059990 -0.196462 0.637146 -1.470919 16.515961 -0.081864 41.471553 47.398917 -33.772407 0.000001 0.000006 -14.516379 0.000010 -0.000000 0.000001 0.267440 -0.074282 0.023388 0.000009 -0.000010 -0.000010 0.000001 0.000010 0.000003 0.000007 0.000006 -0.000003 0.271429 -0.006469 0.027009 0.000006 -0.000004 -0.000000 -0.000000 -0.000001 -0.000007 0.000001 0.000003 0.000002 0.257236 0.060858 0.018027 0.000008 0.000001 -0.000005 0.000001 0.000001 0.000001 -0.000001 -0.000003 0.000000 0.238705 0.105100 -0.018138 0.000007 0.000009 -0.000006 0.000001 0.000009 0.000001 0.000002 0.000003 -0.000001 0.055325 -0.041942 -0.041875 -0.000001 -0.000003 -0.000015 -0.000007 0.000001 -0.000003 0.000003 0.000015 -0.000014 -0.059990 -0.196459 0.637146 0.541460 -15.301765 0.824585 63.231603 -46.290904 60.606919 -0.000004 0.000014 15.250311 0.000024 0.000014 0.000011 -0.267440 -0.074281 0.023391 0.000026 0.000014 0.000008 -0.000000 -0.000004 0.000002 -0.000058 -0.000016 -0.000032 -0.271430 -0.006468 0.027012 0.000019 0.000015 0.000001 0.000010 0.000023 -0.000003 -0.000020 -0.000038 0.000002 -0.257236 0.060858 0.018026 0.000018 0.000012 -0.000001 -0.000023 0.000017 0.000005 0.000011 0.000013 0.000001 -0.238706 0.105101 -0.018138 0.000026 0.000018 -0.000003 0.000031 0.000016 0.000009 -0.000032 -0.000005 0.000011 -0.055325 -0.041938 -0.041871 0.000030 0.000034 -0.000002 -0.000020 -0.000015 -0.000000 0.000049 0.000032 0.000035 -0.306849 0.036633 0.130714 -14.315862 -16.985654 20.058695 36.859949 -0.000046 -0.000005 0.610256 1.057860 -2.214846 -10.423799 0.000024 -0.000006 0.249057 0.031547 0.134736 -19.577638 -12.102156 29.289422 39.655419 -0.000007 0.000005 -4.837228 -1.122630 2.135325 -6.056245 0.000027 0.000004 
-0.048093 2.156613 2.304054 -6.338664 -3.246073 -151.196524 0.000000 0.154442 0.259456 0.348180 2.983602 0.900976 -0.191297 3.288628 1.024704 -1.190740 3.484778 1.155552 0.000000 0.012357 0.660220 -3.534695 -0.604051 -0.184797 -0.241264 -0.959458 -0.032654 0.059990 -0.196462 0.637146 -1.641367 16.744231 -0.087860 35.107210 46.259966 -30.274721 0.000004 0.000006 -10.012173 0.000007 -0.000001 0.000001 0.267439 -0.074282 0.023388 0.000008 -0.000009 -0.000011 -0.000004 0.000009 0.000000 0.000007 0.000004 -0.000003 0.271428 -0.006469 0.027009 0.000006 -0.000004 0.000001 -0.000001 -0.000001 -0.000006 0.000000 0.000003 0.000002 0.257236 0.060857 0.018026 0.000006 -0.000000 -0.000005 0.000003 -0.000001 -0.000001 -0.000001 -0.000003 -0.000000 0.238705 0.105100 -0.018138 0.000004 0.000006 -0.000009 0.000000 0.000007 -0.000003 0.000004 0.000003 0.000000 0.055325 -0.041942 -0.041875 -0.000007 -0.000002 -0.000009 -0.000005 -0.000003 -0.000006 0.000005 0.000012 -0.000019 -0.059990 -0.196459 0.637146 0.615020 -15.263562 0.936702 65.027683 -44.342493 63.158028 0.003135 -0.000009 14.295244 0.000023 0.000014 0.000011 -0.267440 -0.074281 0.023392 0.000026 0.000015 0.000006 -0.000001 -0.000004 -0.000001 -0.000057 -0.000014 -0.000032 -0.271430 -0.006468 0.027012 0.000018 0.000016 0.000001 0.000012 0.000022 -0.000004 -0.000019 -0.000033 0.000002 -0.257236 0.060858 0.018027 0.000017 0.000012 -0.000002 -0.000022 0.000017 0.000006 0.000012 0.000012 0.000000 -0.238706 0.105101 -0.018138 0.000026 0.000017 -0.000006 0.000029 0.000018 0.000010 -0.000029 -0.000005 0.000010 -0.055325 -0.041938 -0.041871 0.000024 0.000032 -0.000005 -0.000016 -0.000013 0.000004 0.000055 0.000035 0.000037 -0.306849 0.036633 0.130714 -14.538087 -17.719102 25.264103 39.383082 -0.000048 -0.000006 4.075808 0.104921 -0.189421 -15.265645 0.000024 -0.000007 0.249098 0.031535 0.134664 -23.155753 -10.520802 25.820497 34.251257 -0.000006 0.000007 -5.117290 -0.613428 1.117786 -2.881241 0.000026 -0.000004 
